<svg width="25" height="25" viewBox="0 0 25 25" fill="none" xmlns="http://www.w3.org/2000/svg">
<g clip-path="url(#clip0_652_499)">
<rect x="2.38086" y="2.38086" width="21.4286" height="20.2381" fill="white"/>
<path d="M21.3012 21.3015H17.597V15.5005C17.597 14.1171 17.5723 12.3364 15.6704 12.3364C13.7411 12.3364 13.4459 13.8436 13.4459 15.3998V21.3011H9.7418V9.37184H13.2978V11.0021H13.3476C13.7034 10.3936 14.2177 9.89304 14.8355 9.55369C15.4534 9.21434 16.1517 9.04892 16.8562 9.07506C20.6105 9.07506 21.3027 11.5446 21.3027 14.7573L21.3012 21.3015ZM5.56211 7.74127C4.3749 7.74147 3.4123 6.77916 3.41211 5.59196C3.41191 4.40475 4.37412 3.44215 5.56133 3.44196C6.74854 3.44166 7.71113 4.40397 7.71133 5.59117C7.71143 6.1613 7.48506 6.70811 7.082 7.11133C6.67895 7.51455 6.13223 7.74114 5.56211 7.74127ZM7.41426 21.3016H3.70615V9.37184H7.41416V21.3015L7.41426 21.3016ZM23.1479 0.00181952H1.84482C0.837988 -0.0095086 0.0123047 0.797034 0 1.80387V23.1958C0.0119141 24.2031 0.8375 25.0104 1.84473 24.9999H23.1479C24.1572 25.0124 24.986 24.205 25 23.1958V1.80221C24.9856 0.793421 24.1567 -0.0130242 23.1479 0.000159364" fill="#0A66C2"/>
</g>
<defs>
<clipPath id="clip0_652_499">
<rect width="25" height="25" fill="white"/>
</clipPath>
</defs>
</svg>
