<svg width="35" height="35" viewBox="0 0 35 35" fill="none" xmlns="http://www.w3.org/2000/svg">
<g opacity="0.4">
<path d="M31.9197 16.1723H27.8224C27.2424 11.2636 23.3496 7.37085 18.441 6.7908V2.69353C18.441 2.546 18.3202 2.42529 18.1727 2.42529H16.161C16.0134 2.42529 15.8927 2.546 15.8927 2.69353V6.7908C10.9841 7.37085 7.09131 11.2636 6.51126 16.1723H2.41399C2.26646 16.1723 2.14575 16.293 2.14575 16.4405V18.4523C2.14575 18.5998 2.26646 18.7205 2.41399 18.7205H6.51126C7.09131 23.6292 10.9841 27.5219 15.8927 28.102V32.1992C15.8927 32.3468 16.0134 32.4675 16.161 32.4675H18.1727C18.3202 32.4675 18.441 32.3468 18.441 32.1992V28.102C23.3496 27.5219 27.2424 23.6292 27.8224 18.7205H31.9197C32.0672 18.7205 32.1879 18.5998 32.1879 18.4523V16.4405C32.1879 16.293 32.0672 16.1723 31.9197 16.1723ZM17.1668 25.6275C12.6471 25.6275 8.98571 21.9661 8.98571 17.4464C8.98571 12.9266 12.6471 9.26525 17.1668 9.26525C21.6866 9.26525 25.348 12.9266 25.348 17.4464C25.348 21.9661 21.6866 25.6275 17.1668 25.6275Z" fill="#BDBBBA"/>
<path d="M17.1671 13.4229C16.0908 13.4229 15.0849 13.8386 14.3238 14.6031C13.5627 15.3642 13.1436 16.3701 13.1436 17.4464C13.1436 18.5226 13.5627 19.5285 14.3238 20.2896C15.0849 21.0474 16.0941 21.4699 17.1671 21.4699C18.24 21.4699 19.2492 21.0507 20.0103 20.2896C20.7681 19.5285 21.1906 18.5193 21.1906 17.4464C21.1906 16.3734 20.7715 15.3642 20.0103 14.6031C19.2492 13.8386 18.2433 13.4229 17.1671 13.4229Z" fill="#BDBBBA"/>
</g>
</svg>
