<svg width="45" height="45" viewBox="0 0 45 45" fill="none" xmlns="http://www.w3.org/2000/svg">
<rect width="45" height="45" rx="5" fill="#C4C4C4"/>
<rect width="45" height="45" rx="5" fill="#40B3E0"/>
<rect width="45" height="45" rx="5" fill="#111110"/>
<path d="M15.2534 17.06C15.265 16.9459 15.2495 16.8306 15.2079 16.7235C15.1663 16.6164 15.0999 16.5204 15.014 16.4431L13.2394 14.3178V14H18.7475L23.0054 23.2859L26.7484 14H32V14.3178L30.4828 15.7625C30.4186 15.8115 30.369 15.8768 30.3393 15.9514C30.3097 16.026 30.3012 16.1072 30.3147 16.1862V26.8119C30.3012 26.8909 30.3097 26.9721 30.3393 27.0467C30.369 27.1214 30.4186 27.1866 30.4828 27.2356L31.9648 28.6812V29H24.5131V28.6822L26.0482 27.2009C26.1993 27.0509 26.1993 27.0069 26.1993 26.7781V18.1888L21.9319 28.9644H21.3562L16.3877 18.1888V25.4113C16.3468 25.7141 16.4485 26.0206 16.6632 26.24L18.6591 28.6475V28.9644H13V28.6475L14.995 26.24C15.1006 26.1313 15.1789 25.9998 15.2238 25.8559C15.2686 25.712 15.2788 25.5597 15.2534 25.4113V17.06Z" fill="white"/>
</svg>
