<svg width="758" height="65" viewBox="0 0 758 65" fill="none" xmlns="http://www.w3.org/2000/svg">
<path d="M44.1526 40.1234L17.6539 0H0V65H18.5455V33.9571L39.2308 65H49.1812L69.8309 33.9571V65H88.4121V0H70.7225L44.1526 40.1234Z" fill="url(#paint0_linear_1507_94)"/>
<path d="M245.77 0H176.824V14.9934H201.604V65H220.306V14.9934H245.77V0Z" fill="url(#paint1_linear_1507_94)"/>
<path d="M270.526 0L235.225 65H255.356L260.389 56.2572H299.285L304.353 65H324.448L289.255 0H270.526ZM268.118 41.137L279.837 19.766L291.807 41.137H268.118Z" fill="url(#paint2_linear_1507_94)"/>
<path d="M418.538 14.9934H443.318V65H462.02V14.9934H487.483V0H418.538V14.9934Z" fill="url(#paint3_linear_1507_94)"/>
<path d="M569.52 2.95671C568.081 1.92422 566.513 1.16872 564.874 0.718523C563.21 0.258358 561.508 0.017592 559.799 0.000621413H511.588C509.809 -0.0135017 508.034 0.213153 506.298 0.676252C504.682 1.08878 503.128 1.78638 501.688 2.74554C500.393 3.64417 499.283 4.86996 498.436 6.33512C497.593 7.92695 497.17 9.77921 497.221 11.6561V53.337C497.17 55.2139 497.593 57.0662 498.436 58.658C499.283 60.1232 500.393 61.3489 501.688 62.2475C503.128 63.2067 504.682 63.9043 506.298 64.3168C508.034 64.7799 509.809 65.0067 511.588 64.9925H559.799C561.538 65.0405 563.276 64.8563 564.981 64.4435C566.62 63.9933 568.188 63.2378 569.627 62.2053C570.932 61.2384 572.061 59.9753 572.951 58.4891C573.826 57.0348 574.289 55.2904 574.273 53.506V11.6561C574.289 9.87167 573.826 8.12723 572.951 6.67296C572.03 5.17416 570.863 3.91018 569.52 2.95671ZM555.474 50.0009H515.805V14.9922H555.474V50.0009Z" fill="url(#paint4_linear_1507_94)"/>
<path d="M647.684 41.5477C649.634 41.1571 651.523 40.4323 653.293 39.3965C654.878 38.4573 656.266 37.1175 657.356 35.4737C658.393 33.8116 658.936 31.7963 658.902 29.7371V9.15314C658.851 8.04909 658.54 6.98331 658.003 6.07393C657.375 4.9528 656.598 3.95615 655.702 3.12131C654.773 2.21996 653.745 1.46814 652.646 0.885753C651.692 0.339449 650.65 0.0375338 649.59 0H584.006V14.974H638.372C638.783 14.9707 639.185 15.1182 639.522 15.3958C639.882 15.6489 640.061 15.9442 640.061 16.2394V25.8144C640.061 26.6158 639.486 27.0376 638.372 27.0376H584.006V65H602.811V42.3069H614.605L640.601 65H666.741L641.284 42.3069C643.433 42.2874 645.575 42.0332 647.684 41.5477Z" fill="url(#paint5_linear_1507_94)"/>
<path d="M739.734 0L712.92 40.1234L686.215 0H668.363V65H687.114V33.9571L707.954 65H717.995L738.87 33.9571V65H757.586V0H739.734Z" fill="url(#paint6_linear_1507_94)"/>
<path d="M341.098 0H331.748V39.9967H388.314C388.747 39.9814 389.174 40.1293 389.532 40.419C389.89 40.7147 390.069 40.9681 390.069 41.2637V48.7394C390.069 49.5841 389.496 50.0065 388.314 50.0065H331.748V65H408.805V25.0032H352.06C350.95 25.0032 350.377 24.5809 350.377 23.7362V16.2605C350.395 16.0821 350.451 15.9118 350.538 15.7645C350.625 15.6172 350.742 15.4975 350.878 15.4158C351.22 15.1206 351.637 14.9716 352.06 14.9934H408.805V0H341.098Z" fill="url(#paint7_linear_1507_94)"/>
<path d="M98.1458 14.3382H116.884H121.559H167.091V0H98.1458V14.3382Z" fill="url(#paint8_linear_1507_94)"/>
<path d="M116.884 40.1143H143.21V25.0645H116.884V24.8525H98.1458V64.9996H167.091V49.9497H116.884V40.1143Z" fill="url(#paint9_linear_1507_94)"/>
<defs>
<linearGradient id="paint0_linear_1507_94" x1="44.206" y1="0" x2="44.206" y2="65" gradientUnits="userSpaceOnUse">
<stop stop-color="#D2D8DE"/>
<stop offset="0.239583" stop-color="#FEFFFF"/>
<stop offset="0.505208" stop-color="#C0C3C6"/>
<stop offset="0.796875" stop-color="#B6BBBF"/>
<stop offset="0.984375" stop-color="#ACB2B7"/>
</linearGradient>
<linearGradient id="paint1_linear_1507_94" x1="211.297" y1="0" x2="211.297" y2="65" gradientUnits="userSpaceOnUse">
<stop stop-color="#D2D8DE"/>
<stop offset="0.239583" stop-color="#FEFFFF"/>
<stop offset="0.505208" stop-color="#C0C3C6"/>
<stop offset="0.796875" stop-color="#B6BBBF"/>
<stop offset="0.984375" stop-color="#ACB2B7"/>
</linearGradient>
<linearGradient id="paint2_linear_1507_94" x1="279.837" y1="0" x2="279.837" y2="65" gradientUnits="userSpaceOnUse">
<stop stop-color="#D2D8DE"/>
<stop offset="0.239583" stop-color="#FEFFFF"/>
<stop offset="0.505208" stop-color="#C0C3C6"/>
<stop offset="0.796875" stop-color="#B6BBBF"/>
<stop offset="0.984375" stop-color="#ACB2B7"/>
</linearGradient>
<linearGradient id="paint3_linear_1507_94" x1="453.011" y1="0" x2="453.011" y2="65" gradientUnits="userSpaceOnUse">
<stop stop-color="#D2D8DE"/>
<stop offset="0.239583" stop-color="#FEFFFF"/>
<stop offset="0.505208" stop-color="#C0C3C6"/>
<stop offset="0.796875" stop-color="#B6BBBF"/>
<stop offset="0.984375" stop-color="#ACB2B7"/>
</linearGradient>
<linearGradient id="paint4_linear_1507_94" x1="535.745" y1="0" x2="535.745" y2="65" gradientUnits="userSpaceOnUse">
<stop stop-color="#D2D8DE"/>
<stop offset="0.239583" stop-color="#FEFFFF"/>
<stop offset="0.505208" stop-color="#C0C3C6"/>
<stop offset="0.796875" stop-color="#B6BBBF"/>
<stop offset="0.984375" stop-color="#ACB2B7"/>
</linearGradient>
<linearGradient id="paint5_linear_1507_94" x1="625.373" y1="0" x2="625.373" y2="65" gradientUnits="userSpaceOnUse">
<stop stop-color="#D2D8DE"/>
<stop offset="0.239583" stop-color="#FEFFFF"/>
<stop offset="0.505208" stop-color="#C0C3C6"/>
<stop offset="0.796875" stop-color="#B6BBBF"/>
<stop offset="0.984375" stop-color="#ACB2B7"/>
</linearGradient>
<linearGradient id="paint6_linear_1507_94" x1="712.974" y1="0" x2="712.974" y2="65" gradientUnits="userSpaceOnUse">
<stop stop-color="#D2D8DE"/>
<stop offset="0.239583" stop-color="#FEFFFF"/>
<stop offset="0.505208" stop-color="#C0C3C6"/>
<stop offset="0.796875" stop-color="#B6BBBF"/>
<stop offset="0.984375" stop-color="#ACB2B7"/>
</linearGradient>
<linearGradient id="paint7_linear_1507_94" x1="370.277" y1="0" x2="370.277" y2="65" gradientUnits="userSpaceOnUse">
<stop stop-color="#D2D8DE"/>
<stop offset="0.239583" stop-color="#FEFFFF"/>
<stop offset="0.505208" stop-color="#C0C3C6"/>
<stop offset="0.796875" stop-color="#B6BBBF"/>
<stop offset="0.984375" stop-color="#ACB2B7"/>
</linearGradient>
<linearGradient id="paint8_linear_1507_94" x1="132.618" y1="0" x2="132.618" y2="14.3382" gradientUnits="userSpaceOnUse">
<stop stop-color="#D2D8DE"/>
<stop offset="0.239583" stop-color="#FEFFFF"/>
<stop offset="0.505208" stop-color="#C0C3C6"/>
<stop offset="0.796875" stop-color="#B6BBBF"/>
<stop offset="0.984375" stop-color="#ACB2B7"/>
</linearGradient>
<linearGradient id="paint9_linear_1507_94" x1="132.618" y1="24.8525" x2="132.618" y2="64.9996" gradientUnits="userSpaceOnUse">
<stop stop-color="#D2D8DE"/>
<stop offset="0.239583" stop-color="#FEFFFF"/>
<stop offset="0.505208" stop-color="#C0C3C6"/>
<stop offset="0.796875" stop-color="#B6BBBF"/>
<stop offset="0.984375" stop-color="#ACB2B7"/>
</linearGradient>
</defs>
</svg>
