<svg width="18" height="18" viewBox="0 0 18 18" fill="none" xmlns="http://www.w3.org/2000/svg">
<path d="M12.468 10.4398L14.5057 12.4768L8.991 17.9916L3.477 12.4776L5.51475 10.4398L8.99175 13.9348L12.468 10.4398ZM15.9457 6.96282L18 8.99982L15.9637 11.0368L13.926 8.99982L15.9457 6.96282ZM8.99175 6.96282L11.0287 8.98182L8.991 11.0196L6.954 8.99982L8.991 6.96357L8.99175 6.96282ZM2.037 6.96282L4.0575 8.99982L2.0385 11.0188L0 8.99982L2.037 6.96282ZM8.9925 0.00732422L14.5065 5.50482L12.4688 7.54107L8.99175 4.06407L5.5155 7.55907L3.47775 5.52207L8.99175 0.00807422L8.9925 0.00732422Z" fill="#F3BA2C"/>
</svg>
