<svg width="179" height="178" viewBox="0 0 179 178" fill="none" xmlns="http://www.w3.org/2000/svg">
<g filter="url(#filter0_dd_2646_706)">
<path d="M129.752 84.25C129.752 106.618 111.618 124.752 89.25 124.752C66.8815 124.752 48.7483 106.618 48.7483 84.25C48.7483 61.8815 66.8815 43.7483 89.25 43.7483C111.618 43.7483 129.752 61.8815 129.752 84.25Z" fill="#C4C4C4" fill-opacity="0.04" stroke="#FFFF3F" stroke-width="3.49655"/>
<mask id="path-2-inside-1_2646_706" fill="white">
<path d="M72.3496 96.7793C72.3496 96.7793 78.6871 105.229 89.2496 105.229C99.8121 105.229 106.15 96.7793 106.15 96.7793"/>
</mask>
<path d="M72.3496 96.7793C69.5524 98.8772 69.5532 98.8784 69.5541 98.8795C69.5544 98.8799 69.5553 98.8811 69.5559 98.882C69.5572 98.8837 69.5586 98.8856 69.5601 98.8875C69.5631 98.8915 69.5665 98.896 69.5703 98.901C69.5779 98.911 69.5871 98.923 69.5979 98.937C69.6195 98.9651 69.6475 99.0011 69.6819 99.0445C69.7506 99.1313 69.8449 99.248 69.9643 99.3902C70.2028 99.6744 70.5428 100.062 70.9804 100.519C71.8528 101.429 73.1299 102.631 74.7821 103.832C78.0729 106.225 83.005 108.726 89.2496 108.726V101.733C84.9318 101.733 81.4138 100.008 78.8952 98.1765C77.6427 97.2656 76.6753 96.3543 76.0294 95.6803C75.7078 95.3448 75.4702 95.0725 75.3208 94.8946C75.2463 94.8057 75.1941 94.7408 75.1648 94.7039C75.1502 94.6854 75.1413 94.674 75.1383 94.67C75.1368 94.6681 75.1368 94.668 75.1382 94.6699C75.1389 94.6708 75.14 94.6722 75.1414 94.6741C75.1421 94.6751 75.1429 94.6762 75.1439 94.6774C75.1443 94.678 75.1451 94.679 75.1453 94.6793C75.1461 94.6803 75.1469 94.6814 72.3496 96.7793ZM89.2496 108.726C95.4943 108.726 100.426 106.225 103.717 103.832C105.369 102.631 106.646 101.429 107.519 100.519C107.956 100.062 108.296 99.6744 108.535 99.3902C108.654 99.248 108.749 99.1313 108.817 99.0445C108.852 99.0011 108.88 98.9651 108.901 98.937C108.912 98.923 108.921 98.911 108.929 98.901C108.933 98.896 108.936 98.8915 108.939 98.8875C108.941 98.8856 108.942 98.8837 108.943 98.882C108.944 98.8811 108.945 98.8799 108.945 98.8795C108.946 98.8784 108.947 98.8772 106.15 96.7793C103.352 94.6814 103.353 94.6803 103.354 94.6793C103.354 94.679 103.355 94.678 103.355 94.6774C103.356 94.6762 103.357 94.6751 103.358 94.6741C103.359 94.6722 103.36 94.6708 103.361 94.6699C103.362 94.668 103.362 94.6681 103.361 94.67C103.358 94.674 103.349 94.6854 103.334 94.7039C103.305 94.7408 103.253 94.8057 103.178 94.8946C103.029 95.0725 102.791 95.3448 102.47 95.6803C101.824 96.3543 100.857 97.2656 99.604 98.1765C97.0854 100.008 93.5675 101.733 89.2496 101.733V108.726Z" fill="#FFFF3F" mask="url(#path-2-inside-1_2646_706)"/>
</g>
<circle cx="74.6828" cy="76.383" r="2.33103" stroke="#FFFF3F" stroke-width="3.49655"/>
<circle cx="104.987" cy="76.383" r="2.33103" stroke="#FFFF3F" stroke-width="3.49655"/>
<defs>
<filter id="filter0_dd_2646_706" x="0.379311" y="0.0413795" width="177.741" height="177.741" filterUnits="userSpaceOnUse" color-interpolation-filters="sRGB">
<feFlood flood-opacity="0" result="BackgroundImageFix"/>
<feColorMatrix in="SourceAlpha" type="matrix" values="0 0 0 0 0 0 0 0 0 0 0 0 0 0 0 0 0 0 127 0" result="hardAlpha"/>
<feOffset dy="4.66207"/>
<feGaussianBlur stdDeviation="2.33103"/>
<feComposite in2="hardAlpha" operator="out"/>
<feColorMatrix type="matrix" values="0 0 0 0 0 0 0 0 0 0 0 0 0 0 0 0 0 0 0.59 0"/>
<feBlend mode="normal" in2="BackgroundImageFix" result="effect1_dropShadow_2646_706"/>
<feColorMatrix in="SourceAlpha" type="matrix" values="0 0 0 0 0 0 0 0 0 0 0 0 0 0 0 0 0 0 127 0" result="hardAlpha"/>
<feOffset dy="4.66207"/>
<feGaussianBlur stdDeviation="23.3103"/>
<feComposite in2="hardAlpha" operator="out"/>
<feColorMatrix type="matrix" values="0 0 0 0 1 0 0 0 0 1 0 0 0 0 0.247059 0 0 0 0.13 0"/>
<feBlend mode="normal" in2="effect1_dropShadow_2646_706" result="effect2_dropShadow_2646_706"/>
<feBlend mode="normal" in="SourceGraphic" in2="effect2_dropShadow_2646_706" result="shape"/>
</filter>
</defs>
</svg>
