<svg width="148" height="23" viewBox="0 0 148 23" fill="none" xmlns="http://www.w3.org/2000/svg">
<path d="M0.144 6.32V3.2H12.648V6.32H8.112V20H4.656V6.32H0.144ZM11.1748 14.48C11.1748 13.328 11.4388 12.32 11.9668 11.456C12.5108 10.592 13.2388 9.92 14.1508 9.44C15.0788 8.96 16.1268 8.72 17.2948 8.72C18.4628 8.72 19.5108 8.96 20.4388 9.44C21.3668 9.92 22.0948 10.592 22.6228 11.456C23.1668 12.32 23.4388 13.328 23.4388 14.48C23.4388 15.616 23.1668 16.624 22.6228 17.504C22.0948 18.368 21.3668 19.04 20.4388 19.52C19.5108 20 18.4628 20.24 17.2948 20.24C16.1268 20.24 15.0788 20 14.1508 19.52C13.2388 19.04 12.5108 18.368 11.9668 17.504C11.4388 16.624 11.1748 15.616 11.1748 14.48ZM14.3668 14.48C14.3668 15.408 14.6468 16.16 15.2068 16.736C15.7828 17.312 16.4788 17.6 17.2948 17.6C18.1108 17.6 18.7988 17.312 19.3588 16.736C19.9348 16.16 20.2228 15.408 20.2228 14.48C20.2228 13.536 19.9348 12.784 19.3588 12.224C18.7988 11.648 18.1108 11.36 17.2948 11.36C16.4788 11.36 15.7828 11.648 15.2068 12.224C14.6468 12.784 14.3668 13.536 14.3668 14.48ZM32.7549 8.96H36.4989L31.7469 13.52L36.9789 20H33.2589L28.6989 14.384V20H25.6989V1.28H28.6989V12.848L32.7549 8.96ZM43.4711 20.24C42.2551 20.24 41.1991 20.008 40.3031 19.544C39.4071 19.064 38.7111 18.392 38.2151 17.528C37.7351 16.664 37.4951 15.648 37.4951 14.48C37.4951 12.72 38.0311 11.32 39.1031 10.28C40.1751 9.24 41.6311 8.72 43.4711 8.72C45.2951 8.72 46.7111 9.216 47.7191 10.208C48.7271 11.184 49.2311 12.56 49.2311 14.336C49.2311 14.496 49.2231 14.648 49.2071 14.792C49.1911 14.936 49.1831 15.056 49.1831 15.152H40.6631C40.7591 16.016 41.0471 16.688 41.5271 17.168C42.0231 17.632 42.6711 17.864 43.4711 17.864C44.8311 17.864 45.8231 17.328 46.4471 16.256L49.1831 17.12C48.0311 19.2 46.1271 20.24 43.4711 20.24ZM43.4231 10.928C41.9191 10.928 41.0231 11.704 40.7351 13.256H45.8711C45.8071 12.552 45.5511 11.992 45.1031 11.576C44.6711 11.144 44.1111 10.928 43.4231 10.928ZM58.7036 13.28C58.7036 12.56 58.5596 12.008 58.2716 11.624C57.9996 11.224 57.5356 11.024 56.8796 11.024C56.2396 11.024 55.7116 11.224 55.2956 11.624C54.8796 12.024 54.6716 12.576 54.6716 13.28V20H51.5516V8.96H54.6716V10.64C55.3596 9.36 56.4796 8.72 58.0316 8.72C59.3436 8.72 60.3196 9.096 60.9596 9.848C61.5996 10.584 61.9196 11.616 61.9196 12.944V20H58.7036V13.28ZM81.3446 8.096C80.9926 7.392 80.5606 6.808 80.0486 6.344C79.5526 5.88 78.9446 5.648 78.2246 5.648C77.4886 5.648 76.9526 5.808 76.6166 6.128C76.2806 6.432 76.1126 6.848 76.1126 7.376C76.1126 7.888 76.2886 8.304 76.6406 8.624C77.0086 8.944 77.4806 9.224 78.0566 9.464C78.6486 9.704 79.2806 9.952 79.9526 10.208C80.6566 10.464 81.3366 10.808 81.9926 11.24C82.6486 11.656 83.1846 12.2 83.6006 12.872C84.0166 13.528 84.2246 14.352 84.2246 15.344C84.2246 16.704 83.8006 17.8 82.9526 18.632C82.1046 19.464 80.9366 19.976 79.4486 20.168L79.5206 22.688H76.9046L76.9766 20.144C75.7606 19.92 74.6726 19.416 73.7126 18.632C72.7526 17.848 72.0486 16.928 71.6006 15.872L74.1206 14.144C74.6806 15.2 75.2806 16.008 75.9206 16.568C76.5606 17.128 77.3446 17.408 78.2726 17.408C79.0726 17.408 79.6566 17.24 80.0246 16.904C80.3926 16.552 80.5766 16.064 80.5766 15.44C80.5766 14.912 80.4086 14.48 80.0726 14.144C79.7526 13.792 79.3206 13.488 78.7766 13.232C78.2326 12.976 77.6326 12.728 76.9766 12.488C76.5606 12.328 76.0966 12.128 75.5846 11.888C75.0726 11.632 74.5846 11.304 74.1206 10.904C73.6566 10.504 73.2726 10.016 72.9686 9.44C72.6806 8.864 72.5366 8.176 72.5366 7.376C72.5366 6.672 72.7206 6.016 73.0886 5.408C73.4726 4.8 73.9926 4.288 74.6486 3.872C75.3206 3.456 76.0966 3.184 76.9766 3.056L76.9046 0.368H79.5206L79.4486 3.08C80.6486 3.288 81.6086 3.728 82.3286 4.4C83.0486 5.056 83.6006 5.76 83.9846 6.512L81.3446 8.096ZM90.8102 10.616L89.7062 20H86.1062L88.6022 2.36L95.6582 13.184L102.666 2.36L105.21 20H101.586L100.506 10.616L95.6582 18.44L90.8102 10.616ZM107.855 3.2H118.559V6.128H111.215V9.656H118.079V12.512H111.215V17.072H118.559V20H107.855V3.2ZM123.429 14.336C123.957 15.264 124.565 16.016 125.253 16.592C125.957 17.168 126.757 17.456 127.653 17.456C128.357 17.456 128.917 17.28 129.333 16.928C129.749 16.56 129.957 16.08 129.957 15.488C129.957 14.976 129.821 14.56 129.549 14.24C129.293 13.904 128.909 13.616 128.397 13.376C127.885 13.12 127.253 12.848 126.501 12.56C126.085 12.4 125.621 12.2 125.109 11.96C124.597 11.72 124.101 11.408 123.621 11.024C123.157 10.624 122.773 10.144 122.469 9.584C122.165 9.008 122.013 8.32 122.013 7.52C122.013 6.576 122.253 5.76 122.733 5.072C123.229 4.368 123.893 3.824 124.725 3.44C125.573 3.056 126.525 2.864 127.581 2.864C128.637 2.864 129.557 3.048 130.341 3.416C131.125 3.768 131.773 4.224 132.285 4.784C132.813 5.328 133.221 5.888 133.509 6.464L130.821 8C130.469 7.392 130.029 6.88 129.501 6.464C128.973 6.032 128.333 5.816 127.581 5.816C126.909 5.816 126.405 5.976 126.069 6.296C125.733 6.6 125.565 6.96 125.565 7.376C125.565 8 125.877 8.52 126.501 8.936C127.125 9.336 128.069 9.752 129.333 10.184C130.069 10.44 130.757 10.792 131.397 11.24C132.053 11.672 132.581 12.224 132.981 12.896C133.397 13.552 133.605 14.352 133.605 15.296C133.605 16.384 133.325 17.312 132.765 18.08C132.205 18.848 131.469 19.432 130.557 19.832C129.661 20.232 128.709 20.432 127.701 20.432C126.661 20.432 125.693 20.24 124.797 19.856C123.917 19.472 123.141 18.952 122.469 18.296C121.813 17.64 121.301 16.912 120.933 16.112L123.429 14.336ZM134.675 6.32V3.2H147.179V6.32H142.643V20H139.187V6.32H134.675Z" fill="white"/>
<path d="M0.144 6.32V3.2H12.648V6.32H8.112V20H4.656V6.32H0.144ZM11.1748 14.48C11.1748 13.328 11.4388 12.32 11.9668 11.456C12.5108 10.592 13.2388 9.92 14.1508 9.44C15.0788 8.96 16.1268 8.72 17.2948 8.72C18.4628 8.72 19.5108 8.96 20.4388 9.44C21.3668 9.92 22.0948 10.592 22.6228 11.456C23.1668 12.32 23.4388 13.328 23.4388 14.48C23.4388 15.616 23.1668 16.624 22.6228 17.504C22.0948 18.368 21.3668 19.04 20.4388 19.52C19.5108 20 18.4628 20.24 17.2948 20.24C16.1268 20.24 15.0788 20 14.1508 19.52C13.2388 19.04 12.5108 18.368 11.9668 17.504C11.4388 16.624 11.1748 15.616 11.1748 14.48ZM14.3668 14.48C14.3668 15.408 14.6468 16.16 15.2068 16.736C15.7828 17.312 16.4788 17.6 17.2948 17.6C18.1108 17.6 18.7988 17.312 19.3588 16.736C19.9348 16.16 20.2228 15.408 20.2228 14.48C20.2228 13.536 19.9348 12.784 19.3588 12.224C18.7988 11.648 18.1108 11.36 17.2948 11.36C16.4788 11.36 15.7828 11.648 15.2068 12.224C14.6468 12.784 14.3668 13.536 14.3668 14.48ZM32.7549 8.96H36.4989L31.7469 13.52L36.9789 20H33.2589L28.6989 14.384V20H25.6989V1.28H28.6989V12.848L32.7549 8.96ZM43.4711 20.24C42.2551 20.24 41.1991 20.008 40.3031 19.544C39.4071 19.064 38.7111 18.392 38.2151 17.528C37.7351 16.664 37.4951 15.648 37.4951 14.48C37.4951 12.72 38.0311 11.32 39.1031 10.28C40.1751 9.24 41.6311 8.72 43.4711 8.72C45.2951 8.72 46.7111 9.216 47.7191 10.208C48.7271 11.184 49.2311 12.56 49.2311 14.336C49.2311 14.496 49.2231 14.648 49.2071 14.792C49.1911 14.936 49.1831 15.056 49.1831 15.152H40.6631C40.7591 16.016 41.0471 16.688 41.5271 17.168C42.0231 17.632 42.6711 17.864 43.4711 17.864C44.8311 17.864 45.8231 17.328 46.4471 16.256L49.1831 17.12C48.0311 19.2 46.1271 20.24 43.4711 20.24ZM43.4231 10.928C41.9191 10.928 41.0231 11.704 40.7351 13.256H45.8711C45.8071 12.552 45.5511 11.992 45.1031 11.576C44.6711 11.144 44.1111 10.928 43.4231 10.928ZM58.7036 13.28C58.7036 12.56 58.5596 12.008 58.2716 11.624C57.9996 11.224 57.5356 11.024 56.8796 11.024C56.2396 11.024 55.7116 11.224 55.2956 11.624C54.8796 12.024 54.6716 12.576 54.6716 13.28V20H51.5516V8.96H54.6716V10.64C55.3596 9.36 56.4796 8.72 58.0316 8.72C59.3436 8.72 60.3196 9.096 60.9596 9.848C61.5996 10.584 61.9196 11.616 61.9196 12.944V20H58.7036V13.28ZM81.3446 8.096C80.9926 7.392 80.5606 6.808 80.0486 6.344C79.5526 5.88 78.9446 5.648 78.2246 5.648C77.4886 5.648 76.9526 5.808 76.6166 6.128C76.2806 6.432 76.1126 6.848 76.1126 7.376C76.1126 7.888 76.2886 8.304 76.6406 8.624C77.0086 8.944 77.4806 9.224 78.0566 9.464C78.6486 9.704 79.2806 9.952 79.9526 10.208C80.6566 10.464 81.3366 10.808 81.9926 11.24C82.6486 11.656 83.1846 12.2 83.6006 12.872C84.0166 13.528 84.2246 14.352 84.2246 15.344C84.2246 16.704 83.8006 17.8 82.9526 18.632C82.1046 19.464 80.9366 19.976 79.4486 20.168L79.5206 22.688H76.9046L76.9766 20.144C75.7606 19.92 74.6726 19.416 73.7126 18.632C72.7526 17.848 72.0486 16.928 71.6006 15.872L74.1206 14.144C74.6806 15.2 75.2806 16.008 75.9206 16.568C76.5606 17.128 77.3446 17.408 78.2726 17.408C79.0726 17.408 79.6566 17.24 80.0246 16.904C80.3926 16.552 80.5766 16.064 80.5766 15.44C80.5766 14.912 80.4086 14.48 80.0726 14.144C79.7526 13.792 79.3206 13.488 78.7766 13.232C78.2326 12.976 77.6326 12.728 76.9766 12.488C76.5606 12.328 76.0966 12.128 75.5846 11.888C75.0726 11.632 74.5846 11.304 74.1206 10.904C73.6566 10.504 73.2726 10.016 72.9686 9.44C72.6806 8.864 72.5366 8.176 72.5366 7.376C72.5366 6.672 72.7206 6.016 73.0886 5.408C73.4726 4.8 73.9926 4.288 74.6486 3.872C75.3206 3.456 76.0966 3.184 76.9766 3.056L76.9046 0.368H79.5206L79.4486 3.08C80.6486 3.288 81.6086 3.728 82.3286 4.4C83.0486 5.056 83.6006 5.76 83.9846 6.512L81.3446 8.096ZM90.8102 10.616L89.7062 20H86.1062L88.6022 2.36L95.6582 13.184L102.666 2.36L105.21 20H101.586L100.506 10.616L95.6582 18.44L90.8102 10.616ZM107.855 3.2H118.559V6.128H111.215V9.656H118.079V12.512H111.215V17.072H118.559V20H107.855V3.2ZM123.429 14.336C123.957 15.264 124.565 16.016 125.253 16.592C125.957 17.168 126.757 17.456 127.653 17.456C128.357 17.456 128.917 17.28 129.333 16.928C129.749 16.56 129.957 16.08 129.957 15.488C129.957 14.976 129.821 14.56 129.549 14.24C129.293 13.904 128.909 13.616 128.397 13.376C127.885 13.12 127.253 12.848 126.501 12.56C126.085 12.4 125.621 12.2 125.109 11.96C124.597 11.72 124.101 11.408 123.621 11.024C123.157 10.624 122.773 10.144 122.469 9.584C122.165 9.008 122.013 8.32 122.013 7.52C122.013 6.576 122.253 5.76 122.733 5.072C123.229 4.368 123.893 3.824 124.725 3.44C125.573 3.056 126.525 2.864 127.581 2.864C128.637 2.864 129.557 3.048 130.341 3.416C131.125 3.768 131.773 4.224 132.285 4.784C132.813 5.328 133.221 5.888 133.509 6.464L130.821 8C130.469 7.392 130.029 6.88 129.501 6.464C128.973 6.032 128.333 5.816 127.581 5.816C126.909 5.816 126.405 5.976 126.069 6.296C125.733 6.6 125.565 6.96 125.565 7.376C125.565 8 125.877 8.52 126.501 8.936C127.125 9.336 128.069 9.752 129.333 10.184C130.069 10.44 130.757 10.792 131.397 11.24C132.053 11.672 132.581 12.224 132.981 12.896C133.397 13.552 133.605 14.352 133.605 15.296C133.605 16.384 133.325 17.312 132.765 18.08C132.205 18.848 131.469 19.432 130.557 19.832C129.661 20.232 128.709 20.432 127.701 20.432C126.661 20.432 125.693 20.24 124.797 19.856C123.917 19.472 123.141 18.952 122.469 18.296C121.813 17.64 121.301 16.912 120.933 16.112L123.429 14.336ZM134.675 6.32V3.2H147.179V6.32H142.643V20H139.187V6.32H134.675Z" fill="url(#paint0_linear_1507_380)"/>
<defs>
<linearGradient id="paint0_linear_1507_380" x1="85.5376" y1="-6" x2="85.5376" y2="33.7634" gradientUnits="userSpaceOnUse">
<stop stop-color="#FFA12A"/>
<stop offset="1" stop-color="#FEEF6D"/>
</linearGradient>
</defs>
</svg>
