<svg width="45" height="45" viewBox="0 0 45 45" fill="none" xmlns="http://www.w3.org/2000/svg">
<rect width="45" height="45" rx="5" fill="#C4C4C4"/>
<rect width="45" height="45" rx="5" fill="#111110"/>
<path d="M34 16.207C33.193 16.5646 32.326 16.8063 31.4146 16.9155C32.355 16.3528 33.0586 15.4671 33.394 14.4238C32.5104 14.9486 31.5434 15.318 30.535 15.516C29.8569 14.7919 28.9587 14.312 27.9799 14.1507C27.001 13.9895 25.9963 14.1559 25.1218 14.6241C24.2472 15.0924 23.5517 15.8362 23.1432 16.7403C22.7348 17.6443 22.6362 18.6579 22.8628 19.6237C21.0725 19.5338 19.3211 19.0685 17.7223 18.2579C16.1235 17.4473 14.7129 16.3096 13.5823 14.9187C13.1957 15.5856 12.9734 16.3588 12.9734 17.1823C12.9729 17.9236 13.1555 18.6535 13.5048 19.3074C13.8542 19.9612 14.3595 20.5187 14.976 20.9304C14.261 20.9077 13.5618 20.7145 12.9366 20.3669V20.4249C12.9366 21.4647 13.2962 22.4724 13.9546 23.2771C14.6129 24.0819 15.5294 24.6341 16.5485 24.84C15.8853 25.0195 15.1899 25.0459 14.515 24.9173C14.8025 25.8119 15.3626 26.5942 16.1168 27.1547C16.8711 27.7152 17.7817 28.0258 18.7213 28.043C17.1263 29.2951 15.1566 29.9742 13.129 29.9712C12.7698 29.9713 12.4109 29.9504 12.0542 29.9084C14.1124 31.2318 16.5083 31.9341 18.9552 31.9313C27.2382 31.9313 31.7664 25.071 31.7664 19.1211C31.7664 18.9278 31.7615 18.7325 31.7528 18.5392C32.6336 17.9023 33.3939 17.1135 33.9981 16.2099L34 16.207Z" fill="white"/>
</svg>
